<?xml version="1.0" encoding="UTF-8" standalone="no"?>
<!DOCTYPE svg PUBLIC "-//W3C//DTD SVG 1.1//EN"
 "http://www.w3.org/Graphics/SVG/1.1/DTD/svg11.dtd">
<!-- Generated by graphviz version 3.0.0 (20220413.0242)
 -->
<!-- Title: jwt::error::claim_not_present_exception Pages: 1 -->
<svg width="109pt" height="207pt"
 viewBox="0.00 0.00 109.00 207.00" xmlns="http://www.w3.org/2000/svg" xmlns:xlink="http://www.w3.org/1999/xlink">
<g id="graph0" class="graph" transform="scale(1 1) rotate(0) translate(4 203)">
<title>jwt::error::claim_not_present_exception</title>
<!-- Node1 -->
<g id="node1" class="node">
<title>Node1</title>
<g id="a_node1"><a xlink:title=" ">
<polygon fill="#bfbfbf" stroke="black" points="0,-0.5 0,-30.5 101,-30.5 101,-0.5 0,-0.5"/>
<text text-anchor="start" x="8" y="-18.5" font-family="Helvetica,sans-Serif" font-size="10.00">jwt::error::claim_not</text>
<text text-anchor="middle" x="50.5" y="-7.5" font-family="Helvetica,sans-Serif" font-size="10.00">_present_exception</text>
</a>
</g>
</g>
<!-- Node2 -->
<g id="node2" class="node">
<title>Node2</title>
<g id="a_node2"><a xlink:title=" ">
<polygon fill="none" stroke="black" points="5,-67.5 5,-86.5 96,-86.5 96,-67.5 5,-67.5"/>
<text text-anchor="middle" x="50.5" y="-74.5" font-family="Helvetica,sans-Serif" font-size="10.00">std::out_of_range</text>
</a>
</g>
</g>
<!-- Node2&#45;&gt;Node1 -->
<g id="edge1" class="edge">
<title>Node2&#45;&gt;Node1</title>
<path fill="none" stroke="midnightblue" d="M50.5,-57.23C50.5,-48.59 50.5,-38.5 50.5,-30.52"/>
<polygon fill="midnightblue" stroke="midnightblue" points="47,-57.48 50.5,-67.48 54,-57.48 47,-57.48"/>
</g>
<!-- Node3 -->
<g id="node3" class="node">
<title>Node3</title>
<g id="a_node3"><a xlink:title=" ">
<polygon fill="none" stroke="black" points="10.5,-123.5 10.5,-142.5 90.5,-142.5 90.5,-123.5 10.5,-123.5"/>
<text text-anchor="middle" x="50.5" y="-130.5" font-family="Helvetica,sans-Serif" font-size="10.00">std::logic_error</text>
</a>
</g>
</g>
<!-- Node3&#45;&gt;Node2 -->
<g id="edge2" class="edge">
<title>Node3&#45;&gt;Node2</title>
<path fill="none" stroke="midnightblue" d="M50.5,-112.8C50.5,-103.91 50.5,-93.78 50.5,-86.75"/>
<polygon fill="midnightblue" stroke="midnightblue" points="47,-113.08 50.5,-123.08 54,-113.08 47,-113.08"/>
</g>
<!-- Node4 -->
<g id="node4" class="node">
<title>Node4</title>
<g id="a_node4"><a xlink:title=" ">
<polygon fill="none" stroke="black" points="12.5,-179.5 12.5,-198.5 88.5,-198.5 88.5,-179.5 12.5,-179.5"/>
<text text-anchor="middle" x="50.5" y="-186.5" font-family="Helvetica,sans-Serif" font-size="10.00">std::exception</text>
</a>
</g>
</g>
<!-- Node4&#45;&gt;Node3 -->
<g id="edge3" class="edge">
<title>Node4&#45;&gt;Node3</title>
<path fill="none" stroke="midnightblue" d="M50.5,-168.8C50.5,-159.91 50.5,-149.78 50.5,-142.75"/>
<polygon fill="midnightblue" stroke="midnightblue" points="47,-169.08 50.5,-179.08 54,-169.08 47,-169.08"/>
</g>
</g>
</svg>
