<?xml version="1.0" encoding="UTF-8" standalone="no"?>
<!DOCTYPE svg PUBLIC "-//W3C//DTD SVG 1.1//EN"
 "http://www.w3.org/Graphics/SVG/1.1/DTD/svg11.dtd">
<!-- Generated by graphviz version 3.0.0 (20220413.0242)
 -->
<!-- Title: jwt::algorithm::hmacsha Pages: 1 -->
<svg width="356pt" height="84pt"
 viewBox="0.00 0.00 356.00 84.00" xmlns="http://www.w3.org/2000/svg" xmlns:xlink="http://www.w3.org/1999/xlink">
<g id="graph0" class="graph" transform="scale(1 1) rotate(0) translate(4 80)">
<title>jwt::algorithm::hmacsha</title>
<!-- Node1 -->
<g id="node1" class="node">
<title>Node1</title>
<g id="a_node1"><a xlink:title="Base class for HMAC family of algorithms.">
<polygon fill="#bfbfbf" stroke="black" points="115,-56.5 115,-75.5 233,-75.5 233,-56.5 115,-56.5"/>
<text text-anchor="middle" x="174" y="-63.5" font-family="Helvetica,sans-Serif" font-size="10.00">jwt::algorithm::hmacsha</text>
</a>
</g>
</g>
<!-- Node2 -->
<g id="node2" class="node">
<title>Node2</title>
<g id="a_node2"><a xlink:href="structjwt_1_1algorithm_1_1hs256.html" target="_top" xlink:title=" ">
<polygon fill="none" stroke="black" points="0,-0.5 0,-19.5 104,-19.5 104,-0.5 0,-0.5"/>
<text text-anchor="middle" x="52" y="-7.5" font-family="Helvetica,sans-Serif" font-size="10.00">jwt::algorithm::hs256</text>
</a>
</g>
</g>
<!-- Node1&#45;&gt;Node2 -->
<g id="edge1" class="edge">
<title>Node1&#45;&gt;Node2</title>
<path fill="none" stroke="midnightblue" d="M145.46,-52.37C122.61,-42.26 91.19,-28.35 71.24,-19.52"/>
<polygon fill="midnightblue" stroke="midnightblue" points="144.11,-55.6 154.67,-56.44 146.94,-49.2 144.11,-55.6"/>
</g>
<!-- Node3 -->
<g id="node3" class="node">
<title>Node3</title>
<g id="a_node3"><a xlink:href="structjwt_1_1algorithm_1_1hs384.html" target="_top" xlink:title=" ">
<polygon fill="none" stroke="black" points="122,-0.5 122,-19.5 226,-19.5 226,-0.5 122,-0.5"/>
<text text-anchor="middle" x="174" y="-7.5" font-family="Helvetica,sans-Serif" font-size="10.00">jwt::algorithm::hs384</text>
</a>
</g>
</g>
<!-- Node1&#45;&gt;Node3 -->
<g id="edge2" class="edge">
<title>Node1&#45;&gt;Node3</title>
<path fill="none" stroke="midnightblue" d="M174,-45.8C174,-36.91 174,-26.78 174,-19.75"/>
<polygon fill="midnightblue" stroke="midnightblue" points="170.5,-46.08 174,-56.08 177.5,-46.08 170.5,-46.08"/>
</g>
<!-- Node4 -->
<g id="node4" class="node">
<title>Node4</title>
<g id="a_node4"><a xlink:href="structjwt_1_1algorithm_1_1hs512.html" target="_top" xlink:title=" ">
<polygon fill="none" stroke="black" points="244,-0.5 244,-19.5 348,-19.5 348,-0.5 244,-0.5"/>
<text text-anchor="middle" x="296" y="-7.5" font-family="Helvetica,sans-Serif" font-size="10.00">jwt::algorithm::hs512</text>
</a>
</g>
</g>
<!-- Node1&#45;&gt;Node4 -->
<g id="edge3" class="edge">
<title>Node1&#45;&gt;Node4</title>
<path fill="none" stroke="midnightblue" d="M202.54,-52.37C225.39,-42.26 256.81,-28.35 276.76,-19.52"/>
<polygon fill="midnightblue" stroke="midnightblue" points="201.06,-49.2 193.33,-56.44 203.89,-55.6 201.06,-49.2"/>
</g>
</g>
</svg>
