<?xml version="1.0" encoding="UTF-8" standalone="no"?>
<!DOCTYPE svg PUBLIC "-//W3C//DTD SVG 1.1//EN"
 "http://www.w3.org/Graphics/SVG/1.1/DTD/svg11.dtd">
<!-- Generated by graphviz version 3.0.0 (20220413.0242)
 -->
<!-- Title: jwt::algorithm::ecdsa Pages: 1 -->
<svg width="258pt" height="142pt"
 viewBox="0.00 0.00 258.00 142.00" xmlns="http://www.w3.org/2000/svg" xmlns:xlink="http://www.w3.org/1999/xlink">
<g id="graph0" class="graph" transform="scale(1 1) rotate(0) translate(4 138)">
<title>jwt::algorithm::ecdsa</title>
<!-- Node1 -->
<g id="node1" class="node">
<title>Node1</title>
<g id="a_node1"><a xlink:title="Base class for ECDSA family of algorithms.">
<polygon fill="#bfbfbf" stroke="black" points="0,-57.5 0,-76.5 104,-76.5 104,-57.5 0,-57.5"/>
<text text-anchor="middle" x="52" y="-64.5" font-family="Helvetica,sans-Serif" font-size="10.00">jwt::algorithm::ecdsa</text>
</a>
</g>
</g>
<!-- Node2 -->
<g id="node2" class="node">
<title>Node2</title>
<g id="a_node2"><a xlink:href="structjwt_1_1algorithm_1_1es256.html" target="_top" xlink:title=" ">
<polygon fill="none" stroke="black" points="143,-114.5 143,-133.5 247,-133.5 247,-114.5 143,-114.5"/>
<text text-anchor="middle" x="195" y="-121.5" font-family="Helvetica,sans-Serif" font-size="10.00">jwt::algorithm::es256</text>
</a>
</g>
</g>
<!-- Node1&#45;&gt;Node2 -->
<g id="edge1" class="edge">
<title>Node1&#45;&gt;Node2</title>
<path fill="none" stroke="midnightblue" d="M83.15,-80.82C99.79,-88.28 120.9,-97.48 140,-105 148.23,-108.24 157.26,-111.52 165.55,-114.43"/>
<polygon fill="midnightblue" stroke="midnightblue" points="84.47,-77.58 73.91,-76.65 81.59,-83.96 84.47,-77.58"/>
</g>
<!-- Node3 -->
<g id="node3" class="node">
<title>Node3</title>
<g id="a_node3"><a xlink:href="structjwt_1_1algorithm_1_1es256k.html" target="_top" xlink:title=" ">
<polygon fill="none" stroke="black" points="140,-76.5 140,-95.5 250,-95.5 250,-76.5 140,-76.5"/>
<text text-anchor="middle" x="195" y="-83.5" font-family="Helvetica,sans-Serif" font-size="10.00">jwt::algorithm::es256k</text>
</a>
</g>
</g>
<!-- Node1&#45;&gt;Node3 -->
<g id="edge2" class="edge">
<title>Node1&#45;&gt;Node3</title>
<path fill="none" stroke="midnightblue" d="M114.42,-75.28C122.82,-76.41 131.39,-77.56 139.65,-78.68"/>
<polygon fill="midnightblue" stroke="midnightblue" points="114.68,-71.78 104.3,-73.91 113.75,-78.72 114.68,-71.78"/>
</g>
<!-- Node4 -->
<g id="node4" class="node">
<title>Node4</title>
<g id="a_node4"><a xlink:href="structjwt_1_1algorithm_1_1es384.html" target="_top" xlink:title=" ">
<polygon fill="none" stroke="black" points="143,-38.5 143,-57.5 247,-57.5 247,-38.5 143,-38.5"/>
<text text-anchor="middle" x="195" y="-45.5" font-family="Helvetica,sans-Serif" font-size="10.00">jwt::algorithm::es384</text>
</a>
</g>
</g>
<!-- Node1&#45;&gt;Node4 -->
<g id="edge3" class="edge">
<title>Node1&#45;&gt;Node4</title>
<path fill="none" stroke="midnightblue" d="M114.5,-58.71C124,-57.43 133.73,-56.12 142.97,-54.88"/>
<polygon fill="midnightblue" stroke="midnightblue" points="113.75,-55.28 104.3,-60.09 114.68,-62.22 113.75,-55.28"/>
</g>
<!-- Node5 -->
<g id="node5" class="node">
<title>Node5</title>
<g id="a_node5"><a xlink:href="structjwt_1_1algorithm_1_1es512.html" target="_top" xlink:title=" ">
<polygon fill="none" stroke="black" points="143,-0.5 143,-19.5 247,-19.5 247,-0.5 143,-0.5"/>
<text text-anchor="middle" x="195" y="-7.5" font-family="Helvetica,sans-Serif" font-size="10.00">jwt::algorithm::es512</text>
</a>
</g>
</g>
<!-- Node1&#45;&gt;Node5 -->
<g id="edge4" class="edge">
<title>Node1&#45;&gt;Node5</title>
<path fill="none" stroke="midnightblue" d="M83.15,-53.18C99.79,-45.72 120.9,-36.52 140,-29 148.23,-25.76 157.26,-22.48 165.55,-19.57"/>
<polygon fill="midnightblue" stroke="midnightblue" points="81.59,-50.04 73.91,-57.35 84.47,-56.42 81.59,-50.04"/>
</g>
</g>
</svg>
